<svg width="1475" height="1475" viewBox="0 0 1475 1475" fill="none" xmlns="http://www.w3.org/2000/svg">
<rect width="1475" height="1475" fill="#202020"/>
<path d="M378.992 1201.75C375.668 1201.75 372.926 1200.67 370.765 1198.51C368.604 1196.34 367.524 1193.6 367.524 1190.27V1118.62C367.524 1107.64 364.699 1099.24 359.048 1093.41C353.563 1087.59 346.417 1084.67 337.608 1084.67C328.301 1084.67 320.656 1087.92 314.672 1094.41C308.855 1100.73 305.947 1108.97 305.947 1119.12H286.502C286.668 1108.14 289.078 1098.49 293.731 1090.16C298.385 1081.84 304.867 1075.35 313.177 1070.69C321.487 1066.03 330.877 1063.7 341.348 1063.7C350.987 1063.7 359.463 1065.87 366.776 1070.19C374.255 1074.52 380.072 1080.85 384.227 1089.17C388.382 1097.32 390.46 1107.14 390.46 1118.62V1190.27C390.46 1193.6 389.379 1196.34 387.219 1198.51C385.224 1200.67 382.482 1201.75 378.992 1201.75ZM209.468 1201.75C206.144 1201.75 203.402 1200.67 201.241 1198.51C199.08 1196.34 198 1193.6 198 1190.27V1076.68C198 1073.19 199.08 1070.44 201.241 1068.45C203.402 1066.28 206.144 1065.2 209.468 1065.2C212.958 1065.2 215.7 1066.28 217.695 1068.45C219.855 1070.44 220.936 1073.19 220.936 1076.68V1190.27C220.936 1193.6 219.855 1196.34 217.695 1198.51C215.7 1200.67 212.958 1201.75 209.468 1201.75ZM294.479 1201.75C291.155 1201.75 288.413 1200.67 286.252 1198.51C284.092 1196.34 283.011 1193.6 283.011 1190.27V1118.62C283.011 1107.64 280.186 1099.24 274.535 1093.41C269.051 1087.59 261.904 1084.67 253.095 1084.67C243.788 1084.67 236.06 1087.84 229.91 1094.16C223.927 1100.48 220.936 1108.55 220.936 1118.37H205.978C206.144 1107.72 208.388 1098.32 212.709 1090.16C217.196 1081.84 223.262 1075.35 230.908 1070.69C238.553 1066.03 247.195 1063.7 256.835 1063.7C266.474 1063.7 274.951 1065.87 282.263 1070.19C289.742 1074.52 295.559 1080.85 299.714 1089.17C303.869 1097.32 305.947 1107.14 305.947 1118.62V1190.27C305.947 1193.6 304.867 1196.34 302.706 1198.51C300.712 1200.67 297.969 1201.75 294.479 1201.75Z" fill="white"/>
<path d="M496.015 1202.5C482.22 1202.5 470.005 1199.59 459.368 1193.76C448.897 1187.77 440.67 1179.62 434.687 1169.3C428.704 1158.81 425.712 1146.83 425.712 1133.35C425.712 1119.71 428.538 1107.72 434.188 1097.4C439.839 1086.92 447.651 1078.76 457.623 1072.94C467.595 1066.95 479.146 1063.95 492.275 1063.95C505.073 1063.95 516.125 1066.87 525.432 1072.69C534.739 1078.35 541.886 1086.25 546.872 1096.41C551.858 1106.39 554.351 1117.96 554.351 1131.11C554.351 1133.93 553.354 1136.35 551.359 1138.34C549.531 1140.18 547.038 1141.09 543.88 1141.09H441.418V1122.62H544.13L533.908 1129.86C533.742 1121.04 531.997 1113.13 528.673 1106.14C525.349 1099.15 520.612 1093.66 514.463 1089.67C508.314 1085.67 500.918 1083.67 492.275 1083.67C482.802 1083.67 474.575 1085.84 467.595 1090.16C460.78 1094.49 455.545 1100.4 451.889 1107.89C448.232 1115.38 446.404 1123.87 446.404 1133.35C446.404 1142.84 448.482 1151.33 452.637 1158.81C456.958 1166.14 462.775 1171.96 470.088 1176.29C477.567 1180.62 486.209 1182.78 496.015 1182.78C501.333 1182.78 506.818 1181.78 512.469 1179.78C518.286 1177.79 522.856 1175.46 526.18 1172.79C528.507 1170.96 531 1170.05 533.659 1170.05C536.318 1169.88 538.645 1170.63 540.64 1172.3C543.133 1174.63 544.462 1177.2 544.628 1180.03C544.795 1182.7 543.631 1185.03 541.138 1187.02C535.487 1191.52 528.424 1195.26 519.948 1198.26C511.638 1201.09 503.66 1202.5 496.015 1202.5Z" fill="white"/>
<path d="M617.963 1201.5C610.983 1201.5 604.751 1199.59 599.266 1195.76C593.781 1191.93 589.46 1186.69 586.302 1180.03C583.311 1173.21 581.815 1165.39 581.815 1156.57V1017.77C581.815 1014.44 582.812 1011.78 584.807 1009.78C586.967 1007.62 589.709 1006.54 593.033 1006.54C596.524 1006.54 599.266 1007.62 601.26 1009.78C603.421 1011.78 604.501 1014.44 604.501 1017.77V1156.57C604.501 1163.06 605.748 1168.38 608.241 1172.54C610.9 1176.71 614.141 1178.79 617.963 1178.79H624.196C627.354 1178.79 629.847 1179.87 631.675 1182.03C633.503 1184.03 634.417 1186.77 634.417 1190.27C634.417 1193.6 633.005 1196.34 630.179 1198.51C627.52 1200.5 624.03 1201.5 619.709 1201.5H617.963Z" fill="white"/>
<path d="M714.117 1202.5C700.821 1202.5 688.938 1199.59 678.467 1193.76C668.163 1187.77 660.019 1179.62 654.036 1169.3C648.219 1158.81 645.311 1146.83 645.311 1133.35C645.311 1119.71 648.219 1107.72 654.036 1097.4C660.019 1086.92 668.163 1078.76 678.467 1072.94C688.938 1066.95 700.821 1063.95 714.117 1063.95C727.413 1063.95 739.214 1066.95 749.518 1072.94C759.989 1078.76 768.132 1086.92 773.949 1097.4C779.933 1107.72 783.007 1119.71 783.173 1133.35C783.173 1146.83 780.182 1158.81 774.199 1169.3C768.215 1179.62 760.072 1187.77 749.767 1193.76C739.463 1199.59 727.58 1202.5 714.117 1202.5ZM714.117 1182.03C723.258 1182.03 731.319 1179.95 738.299 1175.79C745.28 1171.63 750.764 1165.89 754.753 1158.57C758.742 1151.24 760.736 1142.84 760.736 1133.35C760.736 1123.87 758.742 1115.46 754.753 1108.14C750.764 1100.65 745.28 1094.82 738.299 1090.66C731.319 1086.5 723.258 1084.42 714.117 1084.42C705.143 1084.42 697.082 1086.5 689.935 1090.66C682.955 1094.82 677.47 1100.65 673.481 1108.14C669.493 1115.46 667.498 1123.87 667.498 1133.35C667.498 1142.84 669.493 1151.24 673.481 1158.57C677.47 1165.89 682.955 1171.63 689.935 1175.79C697.082 1179.95 705.143 1182.03 714.117 1182.03Z" fill="white"/>
<path d="M936.688 1201.75C933.364 1201.75 930.538 1200.67 928.211 1198.51C926.051 1196.18 924.971 1193.43 924.971 1190.27V1127.36C924.971 1117.54 923.143 1109.55 919.486 1103.4C915.83 1097.07 910.927 1092.41 904.777 1089.42C898.628 1086.25 891.564 1084.67 883.587 1084.67C876.108 1084.67 869.377 1086.17 863.394 1089.17C857.41 1092.16 852.591 1096.16 848.934 1101.15C845.444 1106.14 843.699 1111.88 843.699 1118.37H828.741C828.907 1107.89 831.566 1098.57 836.718 1090.41C841.871 1082.09 848.851 1075.6 857.66 1070.94C866.468 1066.12 876.357 1063.7 887.326 1063.7C898.96 1063.7 909.348 1066.2 918.489 1071.19C927.63 1076.02 934.86 1083.18 940.178 1092.66C945.496 1102.15 948.156 1113.71 948.156 1127.36V1190.27C948.156 1193.43 946.992 1196.18 944.665 1198.51C942.505 1200.67 939.846 1201.75 936.688 1201.75ZM832.231 1201.75C828.907 1201.75 826.165 1200.67 824.004 1198.51C821.844 1196.34 820.763 1193.6 820.763 1190.27V1076.43C820.763 1072.94 821.844 1070.19 824.004 1068.2C826.165 1066.03 828.907 1064.95 832.231 1064.95C835.721 1064.95 838.464 1066.03 840.458 1068.2C842.619 1070.19 843.699 1072.94 843.699 1076.43V1190.27C843.699 1193.6 842.619 1196.34 840.458 1198.51C838.464 1200.67 835.721 1201.75 832.231 1201.75Z" fill="white"/>
<path d="M1038.32 1204C1026.86 1204 1016.64 1201.5 1007.66 1196.51C998.686 1191.35 991.622 1184.28 986.47 1175.29C981.484 1166.3 978.991 1156.07 978.991 1144.59C978.991 1141.26 980.071 1138.51 982.232 1136.35C984.559 1134.02 987.384 1132.85 990.708 1132.85C994.198 1132.85 997.024 1134.02 999.184 1136.35C1001.34 1138.51 1002.43 1141.26 1002.43 1144.59C1002.43 1151.91 1004 1158.48 1007.16 1164.31C1010.32 1169.97 1014.56 1174.46 1019.88 1177.79C1025.36 1180.95 1031.51 1182.53 1038.32 1182.53C1045.3 1182.53 1051.45 1180.87 1056.77 1177.54C1062.26 1174.21 1066.5 1169.72 1069.49 1164.06C1072.64 1158.4 1074.22 1151.91 1074.22 1144.59V1018.27C1074.22 1014.77 1075.3 1011.95 1077.46 1009.78C1079.79 1007.62 1082.62 1006.54 1085.94 1006.54C1089.26 1006.54 1092.01 1007.62 1094.17 1009.78C1096.49 1011.95 1097.66 1014.77 1097.66 1018.27V1144.59C1097.66 1156.07 1095.08 1166.3 1089.93 1175.29C1084.78 1184.28 1077.71 1191.35 1068.74 1196.51C1059.93 1201.5 1049.79 1204 1038.32 1204Z" fill="white"/>
<path d="M1208.62 1204C1197.98 1204 1187.93 1202.42 1178.45 1199.26C1169.15 1195.93 1161 1191.35 1154.02 1185.53C1147.04 1179.7 1141.89 1172.88 1138.57 1165.06C1136.9 1161.89 1136.82 1158.98 1138.32 1156.32C1139.98 1153.66 1142.64 1151.91 1146.29 1151.08C1149.12 1150.41 1151.86 1150.83 1154.52 1152.32C1157.18 1153.66 1159.18 1155.74 1160.5 1158.57C1162.67 1163.06 1166.07 1167.14 1170.73 1170.8C1175.38 1174.29 1180.95 1177.12 1187.43 1179.29C1194.08 1181.45 1201.14 1182.53 1208.62 1182.53C1216.93 1182.53 1224.41 1181.2 1231.06 1178.54C1237.87 1175.87 1243.27 1172.05 1247.26 1167.05C1251.42 1161.89 1253.49 1155.65 1253.49 1148.33C1253.49 1139.01 1249.92 1130.77 1242.77 1123.62C1235.63 1116.46 1224.16 1111.97 1208.37 1110.14C1188.26 1107.97 1172.47 1101.9 1161 1091.91C1149.54 1081.93 1143.8 1069.61 1143.8 1054.97C1143.8 1044.32 1146.71 1035.24 1152.53 1027.76C1158.34 1020.1 1166.32 1014.28 1176.46 1010.28C1186.6 1006.29 1198.07 1004.29 1210.86 1004.29C1220.5 1004.29 1229.06 1005.7 1236.54 1008.53C1244.19 1011.36 1250.75 1015.27 1256.24 1020.27C1261.89 1025.09 1266.71 1030.67 1270.7 1036.99C1272.69 1040.32 1273.44 1043.48 1272.94 1046.48C1272.61 1049.31 1271.11 1051.55 1268.45 1053.22C1265.46 1054.88 1262.3 1055.22 1258.98 1054.22C1255.82 1053.22 1253.41 1051.3 1251.75 1048.48C1249.26 1043.98 1246.1 1040.07 1242.28 1036.74C1238.45 1033.41 1233.88 1030.75 1228.56 1028.75C1223.41 1026.76 1217.26 1025.76 1210.12 1025.76C1197.48 1025.59 1187.1 1028.09 1178.95 1033.25C1170.81 1038.24 1166.74 1045.81 1166.74 1055.96C1166.74 1061.29 1168.07 1066.28 1170.73 1070.94C1173.55 1075.44 1178.37 1079.43 1185.19 1082.93C1192.17 1086.25 1201.89 1088.67 1214.35 1090.16C1234.46 1092.49 1249.84 1098.65 1260.47 1108.64C1271.11 1118.46 1276.43 1131.44 1276.43 1147.58C1276.43 1156.9 1274.6 1165.06 1270.94 1172.05C1267.45 1179.04 1262.55 1184.94 1256.24 1189.77C1249.92 1194.43 1242.61 1198.01 1234.3 1200.5C1226.15 1202.83 1217.59 1204 1208.62 1204Z" fill="white"/>
<path fill-rule="evenodd" clip-rule="evenodd" d="M625.131 325.926C565.75 350.909 517.109 396.073 487.799 453.441C458.488 510.809 450.395 576.69 464.948 639.447C479.502 702.203 515.765 757.798 567.334 796.41C618.902 835.022 682.457 854.168 746.772 850.465C811.088 846.762 872.026 820.448 918.821 776.173C965.618 731.897 995.261 672.508 1002.52 608.496C1009.77 544.483 994.169 479.967 958.468 426.342C953.334 418.63 955.423 408.217 963.135 403.083C970.847 397.949 981.26 400.038 986.394 407.75C1026.48 467.96 1044 540.4 1035.85 612.274C1027.71 684.147 994.422 750.83 941.879 800.543C889.336 850.256 820.915 879.8 748.701 883.958C676.487 888.116 605.127 866.619 547.226 823.265C489.324 779.911 448.607 717.489 432.267 647.026C415.926 576.562 425.013 502.59 457.923 438.177C490.833 373.764 545.448 323.053 612.121 295.003C678.794 266.952 753.236 263.367 822.296 284.88C831.141 287.635 836.078 297.039 833.322 305.884C830.567 314.73 821.163 319.666 812.318 316.911C750.811 297.751 684.512 300.944 625.131 325.926Z" fill="#6BA831"/>
<path fill-rule="evenodd" clip-rule="evenodd" d="M909.218 367.293C919.146 367.293 927.195 359.263 927.195 349.359C927.195 339.454 919.146 331.425 909.218 331.425C899.289 331.425 891.241 339.454 891.241 349.359C891.241 359.263 899.289 367.293 909.218 367.293ZM739.013 522.255C754.679 506.626 773.638 498.809 795.882 498.809C818.125 498.809 837.077 506.626 852.744 522.255C868.41 537.884 876.246 556.79 876.246 578.981V642.657C876.246 651.762 868.845 659.153 859.711 659.153C849.816 659.153 841.801 651.156 841.801 641.292V579.752C841.801 568.262 837.883 556.943 830.123 548.45C821.277 538.764 810.525 533.682 797.863 533.204C784.005 532.681 770.455 538.515 761.257 548.877C753.721 557.358 749.956 567.394 749.956 578.981V642.102C749.956 651.514 742.298 659.153 732.858 659.153C723.276 659.153 715.51 651.411 715.51 641.853V578.981C715.51 567.394 711.752 557.364 704.215 548.877C695.018 538.515 681.467 532.681 667.609 533.204C654.953 533.682 644.209 538.758 635.356 548.431C627.59 556.924 623.665 568.249 623.665 579.739V642.083C623.665 651.507 616.008 659.153 606.56 659.153C596.985 659.153 589.226 651.418 589.226 641.859V578.981C589.226 556.79 597.056 537.884 612.729 522.255C628.389 506.626 647.347 498.809 669.591 498.809C691.834 498.809 710.786 506.626 726.453 522.255C728.728 524.519 730.818 526.84 732.73 529.231C734.647 526.84 736.737 524.519 739.013 522.255Z" fill="#D1655B"/>
</svg>
