<svg width="1475" height="1475" viewBox="0 0 1475 1475" fill="none" xmlns="http://www.w3.org/2000/svg">
<rect width="1475" height="1475" fill="#202020"/>
<path fill-rule="evenodd" clip-rule="evenodd" d="M523.521 226.514C403.301 277.234 304.823 368.927 245.482 485.398C186.141 601.869 169.756 735.622 199.22 863.033C228.684 990.444 302.102 1103.31 406.506 1181.71C510.909 1260.1 639.58 1298.97 769.791 1291.45C900.002 1283.93 1023.37 1230.51 1118.12 1140.62C1212.86 1050.73 1272.87 930.156 1287.56 800.195C1302.25 670.235 1270.66 539.251 1198.38 430.38C1187.99 414.724 1192.22 393.582 1207.83 383.159C1223.44 372.736 1244.53 376.978 1254.92 392.634C1336.08 514.876 1371.54 661.945 1355.05 807.866C1338.56 953.786 1271.17 1089.17 1164.8 1190.1C1058.42 1291.02 919.897 1351.01 773.695 1359.45C627.494 1367.89 483.021 1324.25 365.796 1236.23C248.571 1148.21 166.137 1021.48 133.054 878.42C99.9717 735.362 118.369 585.183 184.998 454.409C251.626 323.634 362.197 220.68 497.181 163.731C632.166 106.783 782.877 99.5035 922.694 143.18C940.601 148.774 950.596 167.866 945.017 185.824C939.439 203.781 920.4 213.804 902.493 208.21C777.968 169.311 643.741 175.793 523.521 226.514Z" fill="#6BA831"/>
<path fill-rule="evenodd" clip-rule="evenodd" d="M1099.7 309.488C1119.94 309.488 1136.34 293.208 1136.34 273.126C1136.34 253.044 1119.94 236.764 1099.7 236.764C1079.47 236.764 1063.06 253.044 1063.06 273.126C1063.06 293.208 1079.47 309.488 1099.7 309.488ZM752.797 623.683C784.728 591.995 823.368 576.144 868.705 576.144C914.042 576.144 952.669 591.995 984.6 623.683C1016.53 655.372 1032.5 693.705 1032.5 738.698V867.804C1032.5 886.267 1017.42 901.251 998.801 901.251C978.634 901.251 962.296 885.038 962.296 865.038V740.262C962.296 716.965 954.311 694.016 938.495 676.795C920.465 657.156 898.551 646.852 872.743 645.882C844.499 644.822 816.881 656.652 798.134 677.661C782.774 694.856 775.1 715.206 775.1 738.698V866.68C775.1 885.762 759.493 901.251 740.251 901.251C720.722 901.251 704.893 885.556 704.893 866.175V738.698C704.893 715.206 697.233 694.869 681.873 677.661C663.126 656.652 635.508 644.822 607.263 645.882C581.468 646.852 559.569 657.143 541.525 676.756C525.696 693.977 517.697 716.939 517.697 740.236V866.641C517.697 885.749 502.09 901.251 482.835 901.251C463.32 901.251 447.504 885.568 447.504 866.188V738.698C447.504 693.705 463.463 655.372 495.407 623.683C527.325 591.995 565.965 576.144 611.302 576.144C656.639 576.144 695.266 591.995 727.197 623.683C731.835 628.273 736.095 632.979 739.99 637.828C743.898 632.979 748.159 628.273 752.797 623.683Z" fill="#D1655B"/>
</svg>
