<svg width="1475" height="1475" viewBox="0 0 1475 1475" fill="none" xmlns="http://www.w3.org/2000/svg">
<path d="M742.731 779.931C740.585 779.931 738.814 779.232 737.419 777.834C736.024 776.436 735.326 774.662 735.326 772.511V726.22C735.326 719.124 733.502 713.693 729.853 709.93C726.312 706.166 721.697 704.285 716.01 704.285C710 704.285 705.063 706.381 701.2 710.575C697.444 714.661 695.566 719.984 695.566 726.543H683.01C683.118 719.446 684.674 713.21 687.678 707.833C690.683 702.457 694.869 698.263 700.234 695.252C705.6 692.242 711.663 690.736 718.424 690.736C724.648 690.736 730.121 692.134 734.843 694.93C739.672 697.725 743.428 701.812 746.111 707.188C748.794 712.457 750.136 718.801 750.136 726.22V772.511C750.136 774.662 749.438 776.436 748.043 777.834C746.755 779.232 744.985 779.931 742.731 779.931ZM633.27 779.931C631.124 779.931 629.353 779.232 627.958 777.834C626.563 776.436 625.865 774.662 625.865 772.511V699.123C625.865 696.865 626.563 695.091 627.958 693.801C629.353 692.403 631.124 691.704 633.27 691.704C635.524 691.704 637.294 692.403 638.582 693.801C639.977 695.091 640.675 696.865 640.675 699.123V772.511C640.675 774.662 639.977 776.436 638.582 777.834C637.294 779.232 635.524 779.931 633.27 779.931ZM688.161 779.931C686.015 779.931 684.244 779.232 682.849 777.834C681.454 776.436 680.757 774.662 680.757 772.511V726.22C680.757 719.124 678.932 713.693 675.284 709.93C671.742 706.166 667.128 704.285 661.44 704.285C655.43 704.285 650.44 706.328 646.47 710.414C642.606 714.5 640.675 719.715 640.675 726.059H631.016C631.124 719.177 632.572 713.102 635.363 707.833C638.26 702.457 642.177 698.263 647.114 695.252C652.05 692.242 657.63 690.736 663.855 690.736C670.079 690.736 675.552 692.134 680.274 694.93C685.103 697.725 688.859 701.812 691.542 707.188C694.225 712.457 695.566 718.801 695.566 726.22V772.511C695.566 774.662 694.869 776.436 693.473 777.834C692.186 779.232 690.415 779.931 688.161 779.931Z" fill="#202020"/>
<path d="M818.292 780.415C809.385 780.415 801.497 778.533 794.629 774.769C787.868 770.898 782.556 765.629 778.693 758.963C774.83 752.188 772.898 744.446 772.898 735.737C772.898 726.919 774.722 719.177 778.371 712.511C782.02 705.736 787.064 700.467 793.502 696.704C799.941 692.833 807.4 690.897 815.878 690.897C824.141 690.897 831.277 692.779 837.287 696.543C843.296 700.199 847.911 705.306 851.13 711.865C854.35 718.317 855.96 725.79 855.96 734.285C855.96 736.113 855.316 737.672 854.028 738.963C852.847 740.145 851.238 740.737 849.199 740.737H783.039V728.801H849.36L842.76 733.479C842.653 727.78 841.526 722.672 839.379 718.156C837.233 713.64 834.175 710.091 830.204 707.511C826.233 704.93 821.458 703.64 815.878 703.64C809.761 703.64 804.449 705.037 799.941 707.833C795.541 710.629 792.161 714.446 789.8 719.285C787.439 724.124 786.259 729.608 786.259 735.737C786.259 741.866 787.6 747.35 790.283 752.188C793.073 756.92 796.829 760.683 801.551 763.479C806.38 766.275 811.961 767.673 818.292 767.673C821.726 767.673 825.268 767.027 828.916 765.737C832.672 764.447 835.623 762.941 837.77 761.221C839.272 760.038 840.882 759.447 842.599 759.447C844.316 759.339 845.818 759.823 847.106 760.898C848.716 762.404 849.574 764.07 849.682 765.898C849.789 767.619 849.038 769.124 847.428 770.414C843.779 773.318 839.219 775.737 833.745 777.673C828.38 779.501 823.229 780.415 818.292 780.415Z" fill="#202020"/>
<path d="M897.034 779.769C892.527 779.769 888.502 778.533 884.961 776.06C881.42 773.587 878.629 770.199 876.59 765.898C874.659 761.49 873.693 756.436 873.693 750.737V661.058C873.693 658.908 874.337 657.187 875.625 655.897C877.02 654.499 878.79 653.8 880.937 653.8C883.19 653.8 884.961 654.499 886.249 655.897C887.644 657.187 888.341 658.908 888.341 661.058V750.737C888.341 754.93 889.146 758.371 890.756 761.06C892.473 763.748 894.566 765.092 897.034 765.092H901.058C903.097 765.092 904.707 765.791 905.887 767.189C907.068 768.479 907.658 770.253 907.658 772.511C907.658 774.662 906.746 776.436 904.921 777.834C903.204 779.124 900.951 779.769 898.161 779.769H897.034Z" fill="#202020"/>
<path d="M959.12 780.415C950.535 780.415 942.862 778.533 936.101 774.769C929.447 770.898 924.189 765.629 920.326 758.963C916.57 752.188 914.692 744.446 914.692 735.737C914.692 726.919 916.57 719.177 920.326 712.511C924.189 705.736 929.447 700.467 936.101 696.704C942.862 692.833 950.535 690.897 959.12 690.897C967.705 690.897 975.324 692.833 981.978 696.704C988.739 700.467 993.997 705.736 997.753 712.511C1001.62 719.177 1003.6 726.919 1003.71 735.737C1003.71 744.446 1001.78 752.188 997.914 758.963C994.051 765.629 988.792 770.898 982.139 774.769C975.485 778.533 967.812 780.415 959.12 780.415ZM959.12 767.189C965.022 767.189 970.227 765.845 974.734 763.156C979.241 760.468 982.783 756.758 985.358 752.027C987.934 747.296 989.222 741.866 989.222 735.737C989.222 729.608 987.934 724.177 985.358 719.446C982.783 714.607 979.241 710.844 974.734 708.156C970.227 705.468 965.022 704.123 959.12 704.123C953.325 704.123 948.12 705.468 943.506 708.156C938.998 710.844 935.457 714.607 932.882 719.446C930.306 724.177 929.018 729.608 929.018 735.737C929.018 741.866 930.306 747.296 932.882 752.027C935.457 756.758 938.998 760.468 943.506 763.156C948.12 765.845 953.325 767.189 959.12 767.189Z" fill="#202020"/>
<path d="M1102.83 779.931C1100.69 779.931 1098.86 779.232 1097.36 777.834C1095.96 776.329 1095.27 774.554 1095.27 772.511V731.866C1095.27 725.521 1094.09 720.36 1091.73 716.382C1089.36 712.296 1086.2 709.285 1082.23 707.349C1078.26 705.306 1073.7 704.285 1068.55 704.285C1063.72 704.285 1059.37 705.252 1055.51 707.188C1051.64 709.123 1048.53 711.704 1046.17 714.93C1043.92 718.156 1042.79 721.866 1042.79 726.059H1033.13C1033.24 719.285 1034.96 713.263 1038.28 707.994C1041.61 702.618 1046.12 698.424 1051.8 695.414C1057.49 692.295 1063.88 690.736 1070.96 690.736C1078.47 690.736 1085.18 692.349 1091.08 695.575C1096.98 698.693 1101.65 703.317 1105.09 709.446C1108.52 715.575 1110.24 723.048 1110.24 731.866V772.511C1110.24 774.554 1109.49 776.329 1107.98 777.834C1106.59 779.232 1104.87 779.931 1102.83 779.931ZM1035.39 779.931C1033.24 779.931 1031.47 779.232 1030.07 777.834C1028.68 776.436 1027.98 774.662 1027.98 772.511V698.962C1027.98 696.704 1028.68 694.93 1030.07 693.639C1031.47 692.242 1033.24 691.543 1035.39 691.543C1037.64 691.543 1039.41 692.242 1040.7 693.639C1042.09 694.93 1042.79 696.704 1042.79 698.962V772.511C1042.79 774.662 1042.09 776.436 1040.7 777.834C1039.41 779.232 1037.64 779.931 1035.39 779.931Z" fill="#202020"/>
<path d="M1168.46 781.382C1161.05 781.382 1154.45 779.769 1148.66 776.544C1142.86 773.21 1138.3 768.64 1134.98 762.834C1131.76 757.027 1130.15 750.414 1130.15 742.995C1130.15 740.844 1130.85 739.07 1132.24 737.672C1133.74 736.167 1135.57 735.414 1137.71 735.414C1139.97 735.414 1141.79 736.167 1143.19 737.672C1144.58 739.07 1145.28 740.844 1145.28 742.995C1145.28 747.726 1146.3 751.973 1148.34 755.737C1150.38 759.393 1153.11 762.296 1156.55 764.447C1160.09 766.49 1164.06 767.511 1168.46 767.511C1172.97 767.511 1176.94 766.436 1180.37 764.285C1183.91 762.135 1186.65 759.232 1188.58 755.576C1190.62 751.92 1191.64 747.726 1191.64 742.995V661.381C1191.64 659.123 1192.34 657.295 1193.73 655.897C1195.23 654.499 1197.06 653.8 1199.2 653.8C1201.35 653.8 1203.12 654.499 1204.52 655.897C1206.02 657.295 1206.77 659.123 1206.77 661.381V742.995C1206.77 750.414 1205.11 757.027 1201.78 762.834C1198.45 768.64 1193.89 773.21 1188.1 776.544C1182.41 779.769 1175.86 781.382 1168.46 781.382Z" fill="#202020"/>
<path d="M1278.42 781.382C1271.55 781.382 1265.06 780.361 1258.94 778.318C1252.93 776.167 1247.67 773.21 1243.17 769.447C1238.66 765.683 1235.33 761.275 1233.18 756.221C1232.11 754.178 1232.06 752.296 1233.02 750.576C1234.1 748.855 1235.81 747.726 1238.17 747.188C1240 746.758 1241.77 747.027 1243.49 747.995C1245.2 748.855 1246.49 750.199 1247.35 752.027C1248.75 754.93 1250.95 757.565 1253.95 759.93C1256.95 762.189 1260.55 764.017 1264.74 765.414C1269.03 766.812 1273.59 767.511 1278.42 767.511C1283.78 767.511 1288.61 766.651 1292.91 764.931C1297.31 763.21 1300.79 760.737 1303.37 757.511C1306.05 754.178 1307.39 750.145 1307.39 745.414C1307.39 739.393 1305.09 734.07 1300.47 729.446C1295.86 724.823 1288.45 721.919 1278.26 720.736C1265.27 719.339 1255.08 715.414 1247.67 708.962C1240.27 702.51 1236.57 694.553 1236.57 685.091C1236.57 678.209 1238.44 672.349 1242.2 667.51C1245.96 662.564 1251.11 658.8 1257.65 656.22C1264.2 653.639 1271.6 652.349 1279.87 652.349C1286.09 652.349 1291.62 653.263 1296.45 655.091C1301.38 656.919 1305.62 659.445 1309.16 662.671C1312.81 665.79 1315.92 669.392 1318.5 673.478C1319.79 675.628 1320.27 677.671 1319.95 679.607C1319.73 681.435 1318.77 682.887 1317.05 683.962C1315.12 685.037 1313.08 685.252 1310.93 684.607C1308.9 683.962 1307.34 682.725 1306.27 680.897C1304.66 677.994 1302.62 675.467 1300.15 673.317C1297.68 671.166 1294.73 669.446 1291.3 668.155C1287.97 666.865 1284 666.22 1279.38 666.22C1271.23 666.112 1264.52 667.725 1259.26 671.059C1254 674.284 1251.37 679.177 1251.37 685.736C1251.37 689.177 1252.23 692.403 1253.95 695.414C1255.77 698.317 1258.89 700.898 1263.29 703.156C1267.79 705.306 1274.07 706.865 1282.12 707.833C1295.11 709.339 1305.03 713.317 1311.9 719.769C1318.77 726.113 1322.2 734.5 1322.2 744.93C1322.2 750.952 1321.02 756.221 1318.66 760.737C1316.41 765.253 1313.24 769.07 1309.16 772.189C1305.09 775.199 1300.36 777.511 1295 779.124C1289.74 780.63 1284.21 781.382 1278.42 781.382Z" fill="#202020"/>
<path fill-rule="evenodd" clip-rule="evenodd" d="M281.615 575.456C243.284 591.582 211.886 620.736 192.965 657.768C174.045 694.8 168.821 737.327 178.215 777.837C187.61 818.347 211.018 854.234 244.306 879.159C277.594 904.084 318.62 916.442 360.136 914.052C401.653 911.662 440.989 894.676 471.196 866.096C501.404 837.515 520.539 799.179 525.222 757.858C529.905 716.537 519.834 674.891 496.789 640.275C493.474 635.297 494.823 628.575 499.801 625.261C504.779 621.947 511.501 623.296 514.815 628.274C540.691 667.14 551.998 713.901 546.74 760.297C541.482 806.692 519.997 849.736 486.08 881.827C452.163 913.917 407.996 932.989 361.381 935.672C314.766 938.356 268.702 924.48 231.326 896.494C193.95 868.509 167.667 828.215 157.119 782.729C146.571 737.244 152.437 689.495 173.68 647.915C194.924 606.335 230.179 573.601 273.217 555.494C316.256 537.387 364.308 535.073 408.888 548.96C414.597 550.738 417.784 556.809 416.006 562.518C414.227 568.228 408.157 571.415 402.447 569.636C362.743 557.268 319.946 559.329 281.615 575.456Z" fill="#6BA831"/>
<path fill-rule="evenodd" clip-rule="evenodd" d="M465.212 602.063C471.616 602.063 476.809 596.885 476.809 590.498C476.809 584.111 471.616 578.933 465.212 578.933C458.807 578.933 453.615 584.111 453.615 590.498C453.615 596.885 458.807 602.063 465.212 602.063ZM355.413 701.997C365.52 691.918 377.75 686.877 392.099 686.877C406.448 686.877 418.674 691.918 428.781 701.997C438.887 712.076 443.942 724.269 443.942 738.579V779.643C443.942 785.515 439.167 790.281 433.275 790.281C426.892 790.281 421.721 785.124 421.721 778.763V739.076C421.721 731.666 419.194 724.367 414.188 718.89C408.481 712.644 401.545 709.366 393.377 709.058C384.438 708.721 375.696 712.483 369.763 719.165C364.901 724.635 362.473 731.107 362.473 738.579V779.285C362.473 785.355 357.533 790.281 351.442 790.281C345.262 790.281 340.252 785.289 340.252 779.125V738.579C340.252 731.107 337.827 724.639 332.966 719.165C327.032 712.483 318.291 708.721 309.351 709.058C301.187 709.366 294.255 712.639 288.544 718.878C283.535 724.355 281.003 731.658 281.003 739.068V779.273C281.003 785.35 276.063 790.281 269.969 790.281C263.792 790.281 258.786 785.293 258.786 779.129V738.579C258.786 724.269 263.837 712.076 273.948 701.997C284.05 691.918 296.28 686.877 310.629 686.877C324.979 686.877 337.204 691.918 347.311 701.997C348.779 703.457 350.127 704.954 351.36 706.496C352.597 704.954 353.945 703.457 355.413 701.997Z" fill="#D1655B"/>
</svg>
