<svg width="112" height="112" viewBox="0 0 100 100" xmlns="http://www.w3.org/2000/svg" fill-rule="evenodd" clip-rule="evenodd" stroke-linejoin="round" stroke-miterlimit="2"><circle cx="50" cy="50" r="50" fill="#4daf50"></circle><path d="M49.255 44.126c-.01-8.699-7.171-15.851-15.87-15.851-.194 0-.387.003-.581.01-8.56.448-15.339 7.657-15.26 16.228v26.582h10.78V44.223c.001-2.832 2.252-5.198 5.08-5.342a5.476 5.476 0 0 1 5.535 4.432c.61 3.349-2.293 6.252-5.544 6.252-.078 1.509 0 9.173 0 10.421 8.696-.01 15.849-7.163 15.86-15.86Zm33.191-6.261v-8.699h-30.24v41.658h29.505v-8.931H61.322v-9.29h17.883v-7.354H61.322v-7.384h21.124Z" fill="#fff" fill-rule="nonzero"></path><path d="M50.01 97H50C24.217 97 3 75.783 3 50S24.217 3 50 3s47 21.217 47 47v.01C96.968 75.776 75.776 96.968 50.01 97Zm0-92c-.004 0-.007-.094-.01-.094-24.743 0-45 20.36-45 45.104C5 74.753 25.257 95 50 95s45-20.247 45-44.99C94.973 25.28 74.739 5.032 50.01 5Z" fill="#fdfdfd" fill-rule="nonzero"></path></svg>