<svg width="112" height="112" viewBox="0 0 100 100" xmlns="http://www.w3.org/2000/svg" fill-rule="evenodd" clip-rule="evenodd" stroke-linejoin="round" stroke-miterlimit="2"><circle cx="50" cy="50" r="50" fill="#ffba32"></circle><path d="M40.449 45.8c-.339 0-.658 0-.968-.058a4.558 4.558 0 0 1-3.58-4.219 4.65 4.65 0 0 1 3.774-4.751c.205-.027.412-.041.619-.041 2.58 0 4.703 2.123 4.703 4.703v.05c1.277.068 7.809 0 8.864 0-.068-7.366-6.133-13.395-13.499-13.421-7.616 0-13.48 6.328-13.48 14.012 0 10.131 9.232 12.744 14.341 12.638 4.839-.271 5.429 2.128 5.351 4.141v.116c-.164 2.449-2.225 3.871-5.912 3.871-4.684 0-8.545-1.935-12.232-5.032l-5.331 6.455a25.961 25.961 0 0 0 17.418 6.628c8.835.01 15.018-4.606 15.018-12.831v-.116c0-7.229-6.493-11.787-15.086-12.145Zm22.528-16.963h10.044v42.065H62.977V28.837Z" fill="#fff" fill-rule="nonzero"></path><path d="M50.01 97H50C24.217 97 3 75.783 3 50S24.217 3 50 3s47 21.217 47 47v.01C96.968 75.776 75.776 96.968 50.01 97Zm0-92c-.004 0-.007-.094-.01-.094-24.743 0-45 20.36-45 45.104C5 74.753 25.257 95 50 95s45-20.247 45-44.99C94.973 25.28 74.739 5.032 50.01 5Z" fill="#fdfdfd" fill-rule="nonzero"></path></svg>