<svg width="112" height="112" viewBox="0 0 100 100" xmlns="http://www.w3.org/2000/svg" fill-rule="evenodd" clip-rule="evenodd" stroke-linejoin="round" stroke-miterlimit="2"><defs><linearGradient id="tp-gradient" x1="0" y1="0" x2="1" y2="0" gradientUnits="userSpaceOnUse" gradientTransform="matrix(0 -97.4356 97.4356 0 50 99.99)"><stop offset="0" stop-color="#1c82af" stop-opacity="1"/><stop offset=".03" stop-color="#1c82af" stop-opacity="1"/><stop offset=".53" stop-color="#51a6ed" stop-opacity="1"/><stop offset="1" stop-color="#7cbaf1" stop-opacity="1"/></linearGradient></defs><circle cx="50" cy="50" r="50" fill="url(#tp-gradient)"/><path d="M38.7 73.24h-9.64L29 38H17.38v-9h32.75v9H38.6l.1 35.24ZM86 45.6c-.01-8.99-7.41-16.381-16.4-16.381-.2 0-.4.004-.6.011-8.858.447-15.881 7.902-15.8 16.77v27.47h11.14V45.7c.002-2.927 2.327-5.372 5.25-5.52a5.659 5.659 0 0 1 5.72 4.58c.63 3.46-2.37 6.46-5.73 6.46-.07 1.56 0 9.48 0 10.77 8.998.005 16.409-7.392 16.42-16.39Z" fill="#fff" fill-rule="nonzero"/><path d="M50.01 97H50C24.217 97 3 75.783 3 50S24.217 3 50 3s47 21.217 47 47v.01C96.968 75.776 75.776 96.968 50.01 97Zm0-92c-.004 0-.007-.094-.01-.094-24.743 0-45 20.36-45 45.104C5 74.753 25.257 95 50 95s45-20.247 45-44.99C94.973 25.28 74.739 5.032 50.01 5Z" fill="#fdfdfd" fill-rule="nonzero"/></svg>
