# Created by Kenney (www.kenney.nl)

mtllib craft_racer.mtl

g craft_racer

v 0.45 0.1 -0.9128351
v 0.25 0.15 -0.9128351
v 0.2 0.1 -0.9128351
v 0.2 0.4 -0.9128351
v 0.25 0.35 -0.9128351
v 0.4 0.35 -0.9128351
v 0.4 0.15 -0.9128351
v 0.45 0.4 -0.9128351
v 0.45 0.5 -0.5128353
v 0.45 0.5 -0.01283526
v 0.2 0.5 -0.5128353
v 0.35 0.5 -0.1128353
v 0.2 0.5 -0.1128353
v 0.2 0.5 -0.3128352
v 0.35 0.5 -0.01283526
v -0.2 0.1 -0.9128351
v -0.4000001 0.15 -0.9128351
v -0.45 0.1 -0.9128351
v -0.45 0.4 -0.9128351
v -0.4000001 0.35 -0.9128351
v -0.25 0.35 -0.9128351
v -0.25 0.15 -0.9128351
v -0.2 0.4 -0.9128351
v 0.35 0.4 -0.1128353
v 0.2 0.4 -0.1128353
v 0.45 0.4 -0.5128353
v 0.45 0.4 0.08716476
v 0.45 0.45 0.08716476
v 0.35 0.45 0.08716476
v 0.35 0.4 0.08716476
v -0.45 0.4 -0.5128353
v -0.45 0.5 -0.5128353
v -0.45 0.4 0.08716476
v -0.45 0.5 -0.01283526
v -0.45 0.45 0.08716476
v -0.2 0.4 -0.1128353
v -0.3499999 0.4 -0.1128353
v -0.2 0.5 -0.1128353
v -0.3499999 0.5 -0.1128353
v -0.3499999 0.5 -0.01283526
v -0.3499999 0.4 0.08716476
v -0.3499999 0.45 0.08716476
v -0.2 0.5 -0.5128353
v -0.2 0.5 -0.3128352
v 0.45 0.4 -0.8128352
v 0.2 0.4 -0.8128352
v 0.45 0.1 -0.5128353
v 0.2 0.1 -0.5128353
v 0.45 0.2 -0.5128353
v 0.6 0.2 -0.5128353
v 0.6 0 -0.5128353
v 0.6 0.2 -0.2128353
v 0.6 0 -0.2128353
v 0.2 0 -0.5128353
v 0.2 0.7 -0.3128352
v 0.2 0.7 0.08716476
v -0.2 0.7 -0.3128352
v -0.2 0.7 0.08716476
v 0.2 0.4784731 0.08716476
v 0.2 0.4 0.2123492
v -0.2 0 -0.3128352
v 0.2 0 -0.3128352
v -0.2 0.1 -0.3128352
v 0.2 0.1 -0.3128352
v -0.2 0.4 -0.8128352
v -0.45 0.4 -0.8128352
v -0.2 0.1 -0.5128353
v -0.45 0.1 -0.5128353
v -0.45 0.2 -0.5128353
v -0.5999999 0 -0.5128353
v -0.5999999 0.2 -0.5128353
v -0.5999999 0 -0.2128353
v -0.5999999 0.2 -0.2128353
v -0.2 0 -0.5128353
v 0.04999995 0 0.5871647
v 0.04999995 0 0.4871647
v -0.04999995 0 0.5871647
v -0.04999995 0 0.4871647
v 0.2 0 0.4871647
v -0.2 0 0.4871647
v -0.2 0.1 0.4871647
v -0.2 0.2277294 0.4871647
v -0.2 0.1258101 0.6497518
v 0.2 0.2277294 0.4871647
v 0.2 0.1 0.4871647
v 0.2 0.1258101 0.6497518
v -0.2 0.4 0.2123492
v -0.2 0.4784731 0.08716476
v -0.04999995 0.1 0.4871647
v 0.04999995 0.1 0.4871647
v 0.04999995 0.1317492 0.6871647
v 0.04999995 0.05 0.6871647
v -0.04999995 0.1317492 0.6871647
v -0.04999995 0.05 0.6871647
v 0.4 0.35 -0.8128352
v 0.25 0.35 -0.8128352
v 0.4 0.15 -0.8128352
v 0.25 0.15 -0.8128352
v 0.2707107 0.1 0.1578754
v 0.5292892 0.1 0.1578754
v 0.2707107 0.1 0.4164541
v 0.2707107 0.3 0.4164541
v 0.5292892 0.3 0.1578754
v 0.2707107 0.3 0.1578754
v -0.25 0.15 -0.8128352
v -0.4000001 0.15 -0.8128352
v -0.4000001 0.35 -0.8128352
v -0.25 0.35 -0.8128352
v -0.2707107 0.1 0.1578754
v -0.2707107 0.3 0.1578754
v -0.2707107 0.1 0.4164541
v -0.2707107 0.3 0.4164541
v -0.5292892 0.1 0.1578754
v -0.5292892 0.3 0.1578754
v 0.2 0.2668965 1.012835
v -0.2 0.2668965 1.012835
v 0.1 0.45 0.9371647
v -0.0999999 0.45 0.9371647
v 0.2 0.6900496 0.2866684
v -0.2 0.6900496 0.2866684
v -0.2 0.1 -1.012835
v 0.2 0.1 -1.012835
v -0.2 0.5 -1.012835
v -0.0999999 0.5 -1.012835
v 0.1 0.5 -1.012835
v -0.0999999 0.75 -1.012835
v 0.1 0.75 -1.012835
v 0.2 0.5 -1.012835
v 0.6 0.4 -0.5128353
v 0.6 0 0.08716476
v 0.6 0.4 0.08716476
v 0.2 0.4 0.4871647
v -0.0999999 0.6142857 -0.6128354
v 0.1 0.6142857 -0.6128354
v 0.1 0.75 -0.9128351
v -0.0999999 0.75 -0.9128351
v -0.5999999 0.4 -0.5128353
v -0.5999999 0 0.08716476
v -0.5999999 0.4 0.08716476
v -0.2 0.4 0.4871647
v 0.2 0.1834482 1.012835
v -0.2 0.1834482 1.012835

vn 0 0 -1
vn 0 1 0
vn 0 0 1
vn 1 0 0
vn 0 0.8944272 0.4472136
vn -1 0 0
vn 0 0.9486833 -0.3162278
vn 0 -1 0
vn 0 -0.8944272 0.4472136
vn 0 0.3819364 0.9241886
vn 0.7684958 0.5528403 0.322152
vn 0 0.9381591 0.3462045
vn -0.7684958 0.5528403 0.322152
vn 0.7071068 0 0.7071068
vn 0 0.961524 -0.2747211
vn 0 0.9111079 0.4121679
vn -0.7071068 0 0.7071068
vn 0 0.9987586 0.0498137
vn 0 -0.9876331 0.1567831

vt -17.71654 3.937008
vt -9.84252 5.905512
vt -7.874016 3.937008
vt -7.874016 15.74803
vt -9.84252 13.77953
vt -15.74803 13.77953
vt -15.74803 5.905512
vt -17.71654 15.74803
vt -17.71654 -20.19037
vt -17.71654 -0.5053265
vt -7.874016 -20.19037
vt -13.77953 -4.442334
vt -7.874016 -4.442334
vt -7.874016 -12.31635
vt -13.77953 -0.5053265
vt 7.874016 3.937008
vt 15.74803 5.905512
vt 17.71654 3.937008
vt 17.71654 15.74803
vt 15.74803 13.77953
vt 9.84252 13.77953
vt 9.84252 5.905512
vt 7.874016 15.74803
vt 13.77953 15.74803
vt 13.77953 19.68504
vt 7.874016 19.68504
vt 20.19037 19.68504
vt 20.19037 15.74803
vt 0.5053265 19.68504
vt -3.431681 15.74803
vt -3.431681 17.71654
vt 17.71654 9.255395
vt 17.71654 4.853686
vt 13.77953 9.255395
vt 13.77953 4.853686
vt -4.442334 15.74803
vt -4.442334 19.68504
vt 3.431681 15.74803
vt -0.5053265 19.68504
vt 3.431681 17.71654
vt 17.71654 17.71654
vt 13.77953 17.71654
vt -20.19037 15.74803
vt -20.19037 19.68504
vt -13.77953 15.74803
vt -7.874016 19.68504
vt -13.77953 19.68504
vt 4.442334 19.68504
vt 4.442334 15.74803
vt -13.77953 17.71654
vt -17.71654 17.71654
vt 7.874016 -20.19037
vt 7.874016 -12.31635
vt 17.71654 -20.19037
vt 7.874016 -4.442334
vt 13.77953 -4.442334
vt 13.77953 -0.5053265
vt 17.71654 -0.5053265
vt -13.77953 9.255395
vt -13.77953 4.853686
vt -17.71654 9.255395
vt -17.71654 4.853686
vt -17.71654 -25.37922
vt -17.71654 -12.92931
vt -7.874016 -25.37922
vt -7.874016 -12.92931
vt 17.71654 -35.9384
vt 7.874016 -35.9384
vt 35.9384 15.74803
vt 35.9384 3.937008
vt 32.00139 15.74803
vt 20.19037 3.937008
vt 20.19037 7.874016
vt -17.71654 -35.9384
vt -17.71654 -32.00139
vt -7.874016 -35.9384
vt -7.874016 -32.00139
vt 20.19037 0
vt 8.379342 7.874016
vt 8.379342 0
vt -7.874016 0
vt -23.62205 0
vt -23.62205 7.874016
vt -17.71654 7.874016
vt -7.874016 3.431681
vt 7.874016 3.431681
vt 12.31635 27.55906
vt 12.31635 19.68504
vt -3.431681 27.55906
vt -3.431681 18.83752
vt -8.360205 15.74803
vt 7.874016 -3.556525E-13
vt -7.874016 -3.556525E-13
vt 7.874016 -32.00139
vt 17.71654 -32.00139
vt 7.874016 -25.37922
vt 7.874016 -12.92931
vt 17.71654 -25.37922
vt 17.71654 -12.92931
vt -35.9384 3.937008
vt -35.9384 15.74803
vt -20.19037 3.937008
vt -32.00139 15.74803
vt -20.19037 7.874016
vt -20.19037 0
vt -8.379342 0
vt -8.379342 7.874016
vt 7.874016 0
vt 23.62205 0
vt 23.62205 7.874016
vt 17.71654 7.874016
vt 1.968504 23.11672
vt 1.968504 19.17971
vt -1.968504 23.11672
vt -1.968504 19.17971
vt 7.874016 19.17971
vt -7.874016 19.17971
vt 19.17971 3.937008
vt 19.17971 8.965723
vt 25.58078 4.953154
vt -19.17971 8.965723
vt -19.17971 3.937008
vt -25.58078 4.953154
vt 8.360205 15.74803
vt 3.431681 18.83752
vt 3.431681 27.55906
vt -12.31635 27.55906
vt -12.31635 19.68504
vt -1.968504 0
vt -1.968504 3.937008
vt 1.968504 0
vt 1.968504 3.937008
vt -19.17971 0
vt -27.05373 5.186978
vt -23.11672 0
vt -27.05373 1.968504
vt 19.17971 0
vt 23.11672 0
vt 27.05373 5.186978
vt 27.05373 1.968504
vt 1.968504 25.07793
vt 1.968504 20.67622
vt -1.968504 25.07793
vt -1.968504 20.67622
vt 1.968504 1.968504
vt -1.968504 1.968504
vt 1.968504 5.186978
vt -1.968504 5.186978
vt 15.74803 -32.00139
vt 15.74803 -35.9384
vt 9.84252 -32.00139
vt 9.84252 -35.9384
vt -15.74803 -35.9384
vt -15.74803 -32.00139
vt -9.84252 -35.9384
vt -9.84252 -32.00139
vt -35.9384 5.905512
vt -35.9384 13.77953
vt -32.00139 5.905512
vt -32.00139 13.77953
vt 35.9384 13.77953
vt 35.9384 5.905512
vt 32.00139 13.77953
vt 32.00139 5.905512
vt -10.6579 6.215566
vt -20.83816 6.215566
vt -10.6579 16.39583
vt 10.6579 16.39583
vt 20.83816 6.215566
vt 10.6579 6.215566
vt 20.83816 3.937008
vt 10.6579 3.937008
vt 20.83816 11.81102
vt 10.6579 11.81102
vt -6.215566 11.81102
vt -6.215566 3.937008
vt -16.39583 11.81102
vt -16.39583 3.937008
vt 6.215566 3.937008
vt 6.215566 11.81102
vt 16.39583 3.937008
vt 16.39583 11.81102
vt -10.6579 3.937008
vt -20.83816 3.937008
vt -10.6579 11.81102
vt -20.83816 11.81102
vt 7.874016 -5.518738
vt -7.874016 -5.518738
vt 3.937008 2.281402
vt -3.937008 2.281402
vt -32.50535 4.869821
vt -7.364489 16.21137
vt -33.7308 -3.781218
vt 7.874016 -1.182768
vt 3.937008 -28.48101
vt -7.874016 -1.182768
vt -3.937008 -28.48101
vt 7.364489 16.21137
vt 32.50535 4.869821
vt 33.7308 -3.781218
vt -7.874016 -39.8754
vt 7.874016 -39.8754
vt 3.937008 19.68504
vt -3.937008 19.68504
vt 3.937008 29.52756
vt -3.937008 29.52756
vt -23.62205 15.74803
vt 23.62205 3.431681
vt 23.62205 -8.379342
vt 23.62205 -20.19037
vt 14.27674 -8.073708E-15
vt 10.33974 11.81102
vt 14.27674 15.74803
vt -7.994335 15.74803
vt -4.057327 11.81102
vt -4.057327 3.937008
vt 10.33974 3.937008
vt -7.994335 -8.073708E-15
vt -7.994335 8.965723
vt -7.994335 3.937008
vt -3.431681 0
vt 39.8754 3.937008
vt 39.8754 19.68504
vt 3.937008 -32.93326
vt 3.937008 -16.55506
vt 7.874016 -32.93326
vt 7.874016 -4.271411
vt -3.937008 -16.55506
vt -7.874016 -4.271411
vt -3.937008 -32.93326
vt -7.874016 -32.93326
vt 39.8754 29.52756
vt 35.9384 29.52756
vt 24.12737 24.18448
vt -39.8754 29.52756
vt -35.9384 29.52756
vt -39.8754 19.68504
vt -24.12737 24.18448
vt 3.937008 44.91407
vt 3.937008 31.95071
vt -3.937008 44.91407
vt -3.937008 31.95071
vt -3.937008 -39.8754
vt -3.937008 -35.9384
vt 3.937008 -39.8754
vt 3.937008 -35.9384
vt -20.19037 1.136868E-13
vt -12.31635 1.136868E-13
vt -12.31635 3.937008
vt 20.19037 -1.641642E-27
vt 12.31635 3.937008
vt 12.31635 -1.641642E-27
vt 23.62205 15.74803
vt -23.62205 3.431681
vt -23.62205 -20.19037
vt -23.62205 -8.379342
vt -14.27674 15.74803
vt -10.33974 3.937008
vt -14.27674 1.005672E-14
vt 7.994335 1.005672E-14
vt 4.057327 3.937008
vt 4.057327 11.81102
vt -10.33974 11.81102
vt 7.994335 15.74803
vt 7.994335 3.937008
vt 7.994335 8.965723
vt 3.431681 0
vt -13.77953 3.431681
vt -7.874016 8.360205
vt -17.71654 3.431681
vt -39.8754 3.937008
vt 7.874016 -2.054602
vt 7.874016 -9.918843
vt -7.874016 -2.054602
vt -7.874016 -9.918843
vt 7.874016 7.222372
vt -7.874016 7.222372
vt 7.874016 10.50774
vt -7.874016 10.50774
vt 11.28616 27.16731
vt 19.17971 15.74803
vt 39.8754 10.50774
vt 39.8754 7.222372
vt 7.874016 40.51461
vt 7.874016 26.041
vt -7.874016 40.51461
vt 1.968504 27.53239
vt 7.874016 19.55977
vt -1.968504 27.53239
vt -1.968504 19.55977
vt -7.874016 19.55977
vt -7.874016 26.041
vt 1.968504 19.55977
vt -11.28616 27.16731
vt -19.17971 15.74803
vt -39.8754 10.50774
vt -39.8754 7.222372
vt 17.71654 3.431681
vt 13.77953 3.431681
vt 7.874016 8.360205

usemtl metal

f 3/3/1 2/2/1 1/1/1
f 2/2/1 3/3/1 4/4/1
f 2/2/1 4/4/1 5/5/1
f 5/5/1 4/4/1 6/6/1
f 7/7/1 1/1/1 2/2/1
f 1/1/1 7/7/1 8/8/1
f 8/8/1 7/7/1 6/6/1
f 8/8/1 6/6/1 4/4/1
f 11/11/2 10/10/2 9/9/2
f 10/10/2 11/11/2 12/12/2
f 12/12/2 11/11/2 13/13/2
f 13/13/2 11/11/2 14/14/2
f 15/15/2 10/10/2 12/12/2
f 18/18/1 17/17/1 16/16/1
f 17/17/1 18/18/1 19/19/1
f 17/17/1 19/19/1 20/20/1
f 20/20/1 19/19/1 21/21/1
f 22/22/1 16/16/1 17/17/1
f 16/16/1 22/22/1 23/23/1
f 23/23/1 22/22/1 21/21/1
f 23/23/1 21/21/1 19/19/1
f 12/25/3 25/23/3 24/24/3
f 25/23/3 12/25/3 13/26/3
f 10/29/4 26/28/4 9/27/4
f 26/28/4 10/29/4 27/30/4
f 27/30/4 10/29/4 28/31/4
f 15/34/5 28/33/5 10/32/5
f 28/33/5 15/34/5 29/35/5
f 30/38/6 12/37/6 24/36/6
f 12/37/6 30/38/6 15/39/6
f 15/39/6 30/38/6 29/40/6
f 28/41/3 30/24/3 27/19/3
f 30/24/3 28/41/3 29/42/3
f 33/38/6 32/44/6 31/43/6
f 32/44/6 33/38/6 34/39/6
f 34/39/6 33/38/6 35/40/6
f 38/46/3 37/45/3 36/4/3
f 37/45/3 38/46/3 39/47/3
f 40/29/4 37/49/4 39/48/4
f 37/49/4 40/29/4 41/30/4
f 41/30/4 40/29/4 42/31/4
f 42/50/3 33/8/3 41/45/3
f 33/8/3 42/50/3 35/51/3
f 32/54/2 44/53/2 43/52/2
f 44/53/2 32/54/2 38/55/2
f 38/55/2 32/54/2 39/56/2
f 39/56/2 32/54/2 40/57/2
f 40/57/2 32/54/2 34/58/2
f 34/61/5 42/60/5 40/59/5
f 42/60/5 34/61/5 35/62/5

usemtl metalDark

f 46/65/7 9/64/7 45/63/7
f 9/64/7 46/65/7 11/66/7
f 48/52/8 1/67/8 47/54/8
f 1/67/8 48/52/8 3/68/8
f 45/71/4 1/70/4 8/69/4
f 1/70/4 45/71/4 47/72/4
f 47/72/4 45/71/4 9/27/4
f 47/72/4 9/27/4 26/28/4
f 47/72/4 26/28/4 49/73/4
f 4/76/2 45/75/2 8/74/2
f 45/75/2 4/76/2 46/77/2
f 52/79/4 51/78/4 50/73/4
f 51/78/4 52/79/4 53/80/4
f 48/3/1 51/82/1 54/81/1
f 51/82/1 48/3/1 47/1/1
f 51/82/1 47/1/1 50/83/1
f 50/83/1 47/1/1 49/84/1
f 57/53/2 56/85/2 55/14/2
f 56/85/2 57/53/2 58/86/2
f 56/89/4 14/88/4 55/87/4
f 14/88/4 56/89/4 13/48/4
f 13/48/4 56/89/4 25/49/4
f 25/49/4 56/89/4 59/90/4
f 25/49/4 59/90/4 60/91/4
f 63/16/1 62/93/1 61/92/1
f 62/93/1 63/16/1 64/3/1
f 19/67/2 65/94/2 23/68/2
f 65/94/2 19/67/2 66/95/2
f 68/9/8 16/76/8 67/11/8
f 16/76/8 68/9/8 18/74/8
f 66/98/7 43/97/7 65/96/7
f 43/97/7 66/98/7 32/99/7
f 68/102/6 19/101/6 18/100/6
f 19/101/6 68/102/6 66/103/6
f 66/103/6 68/102/6 32/44/6
f 32/44/6 68/102/6 69/104/6
f 32/44/6 69/104/6 31/43/6
f 72/106/6 71/104/6 70/105/6
f 71/104/6 72/106/6 73/107/6
f 70/109/1 68/18/1 74/108/1
f 68/18/1 70/109/1 71/110/1
f 68/18/1 71/110/1 69/111/1
f 67/16/1 74/108/1 68/18/1
f 77/114/8 76/113/8 75/112/8
f 78/115/8 76/113/8 77/114/8
f 61/14/8 76/113/8 78/115/8
f 62/53/8 76/113/8 61/14/8
f 76/113/8 62/53/8 79/116/8
f 61/14/8 78/115/8 80/117/8
f 83/120/6 82/119/6 81/118/6
f 86/123/4 85/122/4 84/121/4
f 87/124/6 38/37/6 36/36/6
f 38/37/6 87/124/6 88/125/6
f 58/126/6 38/37/6 88/125/6
f 57/127/6 38/37/6 58/126/6
f 38/37/6 57/127/6 44/128/6
f 89/130/3 80/81/3 78/129/3
f 80/81/3 89/130/3 81/3/3
f 85/16/3 76/131/3 79/108/3
f 76/131/3 85/16/3 90/132/3
f 91/134/4 76/133/4 90/122/4
f 76/133/4 91/134/4 75/135/4
f 75/135/4 91/134/4 92/136/4
f 77/138/6 89/118/6 78/137/6
f 89/118/6 77/138/6 93/139/6
f 93/139/6 77/138/6 94/140/6
f 94/143/9 75/142/9 92/141/9
f 75/142/9 94/143/9 77/144/9
f 91/147/3 94/146/3 92/145/3
f 94/146/3 91/147/3 93/148/3

usemtl dark

f 96/151/8 6/150/8 95/149/8
f 6/150/8 96/151/8 5/152/8
f 2/155/2 97/154/2 7/153/2
f 97/154/2 2/155/2 98/156/2
f 96/5/1 97/7/1 98/2/1
f 97/7/1 96/5/1 95/6/1
f 97/159/6 6/158/6 7/157/6
f 6/158/6 97/159/6 95/160/6
f 96/163/4 2/162/4 5/161/4
f 2/162/4 96/163/4 98/164/4
f 101/167/2 100/166/2 99/165/2
f 104/170/8 103/169/8 102/168/8
f 103/173/3 99/172/3 100/171/3
f 99/172/3 103/173/3 104/174/3
f 102/177/4 99/176/4 104/175/4
f 99/176/4 102/177/4 101/178/4
f 17/150/2 105/151/2 22/152/2
f 105/151/2 17/150/2 106/149/2
f 107/163/4 17/162/4 20/161/4
f 17/162/4 107/163/4 106/164/4
f 107/20/1 105/22/1 106/17/1
f 105/22/1 107/20/1 108/21/1
f 107/154/8 21/155/8 108/156/8
f 21/155/8 107/154/8 20/153/8
f 105/159/6 21/158/6 22/157/6
f 21/158/6 105/159/6 108/160/6
f 111/181/6 110/180/6 109/179/6
f 110/180/6 111/181/6 112/182/6
f 113/169/2 111/168/2 109/170/2
f 114/166/8 110/165/8 112/167/8
f 110/185/3 113/184/3 109/183/3
f 113/184/3 110/185/3 114/186/3
f 117/189/10 116/188/10 115/187/10
f 116/188/10 117/189/10 118/190/10
f 115/193/11 119/192/11 117/191/11
f 120/196/12 117/195/12 119/194/12
f 117/195/12 120/196/12 118/197/12
f 116/200/13 118/199/13 120/198/13

usemtl metalRed

f 63/14/8 48/52/8 64/53/8
f 48/52/8 63/14/8 3/68/8
f 3/68/8 63/14/8 67/11/8
f 16/76/8 3/68/8 67/11/8
f 121/201/8 3/68/8 16/76/8
f 3/68/8 121/201/8 122/202/8
f 123/26/1 122/3/1 121/16/1
f 122/3/1 123/26/1 124/203/1
f 125/204/1 122/3/1 124/203/1
f 126/205/1 125/204/1 124/203/1
f 125/204/1 126/205/1 127/206/1
f 122/3/1 125/204/1 128/46/1
f 26/8/1 50/83/1 49/84/1
f 50/83/1 26/8/1 129/207/1
f 79/116/8 53/209/8 130/208/8
f 53/209/8 79/116/8 51/210/8
f 51/210/8 79/116/8 54/52/8
f 54/52/8 79/116/8 62/53/8
f 131/213/14 103/212/14 130/211/14
f 103/212/14 131/213/14 132/214/14
f 103/212/14 132/214/14 102/215/14
f 102/215/14 132/214/14 101/216/14
f 100/217/14 130/211/14 103/212/14
f 130/211/14 100/217/14 79/218/14
f 79/218/14 100/217/14 101/216/14
f 79/218/14 101/216/14 132/214/14
f 79/218/14 132/214/14 84/219/14
f 79/218/14 84/219/14 85/220/14
f 131/30/4 50/73/4 129/28/4
f 50/73/4 131/30/4 52/79/4
f 52/79/4 131/30/4 53/80/4
f 53/80/4 131/30/4 130/221/4
f 128/223/4 4/69/4 122/222/4
f 4/69/4 128/223/4 55/87/4
f 4/69/4 55/87/4 46/71/4
f 46/71/4 55/87/4 11/27/4
f 11/27/4 55/87/4 14/88/4
f 3/70/4 122/222/4 4/69/4
f 123/226/15 133/225/15 124/224/15
f 57/227/15 133/225/15 123/226/15
f 57/227/15 134/228/15 133/225/15
f 55/229/15 134/228/15 57/227/15
f 55/229/15 125/230/15 134/228/15
f 125/230/15 55/229/15 128/231/15
f 135/233/4 125/223/4 127/232/4
f 125/223/4 135/233/4 134/234/4
f 124/237/6 136/236/6 126/235/6
f 136/236/6 124/237/6 133/238/6
f 136/241/16 134/240/16 135/239/16
f 134/240/16 136/241/16 133/242/16
f 126/245/2 135/244/2 127/243/2
f 135/244/2 126/245/2 136/246/2
f 62/248/6 48/102/6 54/247/6
f 48/102/6 62/248/6 64/249/6
f 63/251/4 74/250/4 67/72/4
f 74/250/4 63/251/4 61/252/4
f 137/253/1 69/111/1 71/110/1
f 69/111/1 137/253/1 31/19/1
f 138/254/8 61/14/8 80/117/8
f 61/14/8 138/254/8 74/11/8
f 74/11/8 138/254/8 70/255/8
f 70/255/8 138/254/8 72/256/8
f 138/259/17 113/258/17 139/257/17
f 113/258/17 138/259/17 80/260/17
f 113/258/17 80/260/17 111/261/17
f 111/261/17 80/260/17 112/262/17
f 114/263/17 139/257/17 113/258/17
f 139/257/17 114/263/17 140/264/17
f 140/264/17 114/263/17 112/262/17
f 140/264/17 112/262/17 80/260/17
f 140/264/17 80/260/17 81/265/17
f 140/264/17 81/265/17 82/266/17
f 138/267/6 73/107/6 72/106/6
f 139/38/6 73/107/6 138/267/6
f 137/43/6 73/107/6 139/38/6
f 73/107/6 137/43/6 71/104/6
f 25/13/2 30/268/2 24/12/2
f 30/268/2 25/13/2 60/269/2
f 132/117/2 30/268/2 60/269/2
f 132/117/2 27/270/2 30/268/2
f 131/254/2 27/270/2 132/117/2
f 131/254/2 26/9/2 27/270/2
f 26/9/2 131/254/2 129/255/2
f 16/100/6 123/237/6 121/271/6
f 123/237/6 16/100/6 23/101/6
f 123/237/6 23/101/6 57/127/6
f 57/127/6 23/101/6 65/103/6
f 57/127/6 65/103/6 43/44/6
f 57/127/6 43/44/6 44/128/6
f 58/274/18 119/273/18 56/272/18
f 119/273/18 58/274/18 120/275/18
f 115/278/3 142/277/3 141/276/3
f 142/277/3 115/278/3 116/279/3
f 87/124/6 58/126/6 88/125/6
f 58/126/6 87/124/6 120/280/6
f 120/280/6 87/124/6 140/281/6
f 120/280/6 140/281/6 116/282/6
f 116/282/6 140/281/6 82/119/6
f 116/282/6 82/119/6 83/120/6
f 116/282/6 83/120/6 142/283/6
f 142/286/19 86/285/19 141/284/19
f 86/285/19 142/286/19 91/287/19
f 86/285/19 91/287/19 85/288/19
f 91/287/19 142/286/19 93/289/19
f 93/289/19 142/286/19 89/290/19
f 89/290/19 142/286/19 81/291/19
f 81/291/19 142/286/19 83/292/19
f 90/293/19 85/288/19 91/287/19
f 119/294/4 59/90/4 56/89/4
f 59/90/4 119/294/4 60/91/4
f 60/91/4 119/294/4 132/295/4
f 132/295/4 119/294/4 115/296/4
f 132/295/4 115/296/4 84/121/4
f 84/121/4 115/296/4 86/123/4
f 86/123/4 115/296/4 141/297/4
f 137/210/2 33/298/2 31/54/2
f 139/208/2 33/298/2 137/210/2
f 139/208/2 41/299/2 33/298/2
f 140/116/2 41/299/2 139/208/2
f 140/116/2 36/55/2 41/299/2
f 36/55/2 140/116/2 87/300/2
f 41/299/2 36/55/2 37/56/2

